<svg xmlns="http://www.w3.org/2000/svg" viewBox="0 0 24 24" width="24" height="24">
  <path fill="#0078D4" d="M13.2 12c0 .7-.2 1.4-.5 2-.4.6-.9 1.1-1.5 1.4-.6.3-1.4.5-2.1.5-.8 0-1.5-.2-2.1-.5-.6-.3-1.1-.8-1.5-1.4-.4-.6-.5-1.3-.5-2s.2-1.4.5-2c.4-.6.9-1.1 1.5-1.4.6-.3 1.3-.5 2.1-.5.8 0 1.5.2 2.1.5.6.3 1.1.8 1.5 1.4.3.6.5 1.3.5 2zm10.8-5.5v11c0 1.4-1.1 2.5-2.5 2.5h-7.5v-4.5h1.9c.2 0 .3-.1.4-.2l2.1-2.7c.1-.1.1-.1.2-.1h3c.3 0 .5-.2.5-.5v-5c0-.3-.2-.5-.5-.5h-9.5c-.3 0-.5.2-.5.5v5c0 .3.2.5.5.5h1.5c.1 0 .1 0 .2.1l2.1 2.7c.1.1.2.2.4.2h1.9v4.5h-7.5c-1.4 0-2.5-1.1-2.5-2.5v-11c0-1.4 1.1-2.5 2.5-2.5h19c1.4 0 2.5 1.1 2.5 2.5z"/>
</svg>
