<svg xmlns="http://www.w3.org/2000/svg" viewBox="0 0 24 24" width="24" height="24">
  <path fill="#6001D2" d="M19.828 21c.498 0 .84-.425.84-.851 0-.427-.342-.852-.84-.852-.497 0-.84.425-.84.852 0 .426.343.851.84.851zm-5.953-3.198l3.565-7.089 3.566 7.089h-7.131zm7.216 1.49c.33.658.996 1.04 1.909 1.04 1.15 0 2-.639 2-1.49 0-.734-.498-1.236-1.531-1.49l-.996-.235c-.485-.118-.7-.309-.7-.564 0-.33.342-.564.83-.564.486 0 .83.235.9.639h1.414c-.07-.756-.77-1.32-2.3-1.32-1.149 0-1.978.564-1.978 1.405 0 .71.485 1.193 1.518 1.447l.996.235c.486.118.714.33.714.585 0 .33-.343.564-.9.564-.556 0-.913-.235-.996-.756H21.09v.004zM0 19.745h1.909l.913-2.556h3.453l.913 2.556h1.909L5.12 11.5H3.977L0 19.745zm3.453-4.046l1.136-3.195 1.136 3.195H3.453zM9.5 19.745h1.696v-8.245H9.5v8.245zm0-9.481h1.696v-1.66H9.5v1.66zm2.87 9.481h1.695v-4.61c0-.992.699-1.702 1.625-1.702.926 0 1.398.568 1.398 1.56v4.752h1.695v-5.175c0-1.56-.912-2.556-2.537-2.556-1.044 0-1.767.426-2.18 1.134h-.087v-1.134h-1.61v7.731z"/>
</svg>
