<svg xmlns="http://www.w3.org/2000/svg" viewBox="0 0 500 162.88">
  <path fill="#FFFFFF" d="M486.86,39.36c7.88,0,13.14-6.41,13.14-13.14,0-7.26-5.26-13.14-13.14-13.14-7.41,0-13.14,5.88-13.14,13.14 C473.72,32.95,479.45,39.36,486.86,39.36z M486.86,16.45c5.26,0,9.19,4.19,9.19,9.77,0,5.84-3.93,9.77-9.19,9.77 c-5.52,0-9.19-3.93-9.19-9.77C477.67,20.64,481.34,16.45,486.86,16.45z M0,0.05h33.89l22.07,56.22L77.77,0.05h33.11l-61.48,142.8 H16.71l18.66-42.29L0,0.05z M147.79,0.05h31.58v142.8h-31.58V0.05z M373.89,0.05v142.8h-31.58V0.05H373.89z M405.47,0.05h31.58 v142.8h-31.58V0.05z M486.86,24.59l-3.93-0.26c-1.57,0-2.62,0.52-2.62,1.83c0,2.36,2.62,2.62,4.19,2.62c1.05,0,1.57-0.26,2.36-0.52 V24.59z M486.86,31.85c-0.79,0.26-1.83,0.52-3.67,0.52c-4.19,0-7.88-2.36-7.88-6.81c0-3.93,2.36-6.55,7.62-6.55l3.93,0.26v-0.79 c0-1.83-1.31-2.62-3.93-2.62c-1.83,0-3.67,0.52-5.26,1.31l-0.79-2.88c1.83-0.79,4.45-1.31,6.81-1.31c5.26,0,7.88,2.09,7.88,6.02 v13.4h-4.71V31.85z M319.98,0.05l-42.82,142.8h-33.89l-42.82-142.8h34.94l24.69,90.07l24.69-90.07H319.98z M486.86,46.62v96.22 h-31.58V46.62H486.86z"/>
</svg>
